<svg width="86" height="86" viewBox="0 0 86 86" fill="none" xmlns="http://www.w3.org/2000/svg">
<circle cx="43" cy="43" r="42.5" stroke="white"/>
<mask id="path-2-inside-1_180_8235" fill="white">
<path fill-rule="evenodd" clip-rule="evenodd" d="M43 66C55.7025 66 66 55.7025 66 43C66 30.2975 55.7025 20 43 20C30.2975 20 20 30.2975 20 43C20 55.7025 30.2975 66 43 66ZM45 36C45 38.0837 46.0351 39.9493 47.3554 41.2696C47.6152 41.5294 47.8924 41.7743 48.1825 42H33V44H48.1825C47.8924 44.2257 47.6152 44.4706 47.3554 44.7304C46.0351 46.0507 45 47.9163 45 50H47C47 48.5837 47.7149 47.1993 48.7696 46.1446C49.8426 45.0716 51.1032 44.5 52 44.5V41.5C51.1032 41.5 49.8426 40.9284 48.7696 39.8554C47.7149 38.8007 47 37.4163 47 36H45Z"/>
</mask>
<path fill-rule="evenodd" clip-rule="evenodd" d="M43 66C55.7025 66 66 55.7025 66 43C66 30.2975 55.7025 20 43 20C30.2975 20 20 30.2975 20 43C20 55.7025 30.2975 66 43 66ZM45 36C45 38.0837 46.0351 39.9493 47.3554 41.2696C47.6152 41.5294 47.8924 41.7743 48.1825 42H33V44H48.1825C47.8924 44.2257 47.6152 44.4706 47.3554 44.7304C46.0351 46.0507 45 47.9163 45 50H47C47 48.5837 47.7149 47.1993 48.7696 46.1446C49.8426 45.0716 51.1032 44.5 52 44.5V41.5C51.1032 41.5 49.8426 40.9284 48.7696 39.8554C47.7149 38.8007 47 37.4163 47 36H45Z" fill="white"/>
<path d="M47.3554 41.2696L46.6483 41.9767L46.6483 41.9767L47.3554 41.2696ZM45 36V35H44V36H45ZM48.1825 42V43H51.0968L48.7965 41.2107L48.1825 42ZM33 42V41H32V42H33ZM33 44H32V45H33V44ZM48.1825 44L48.7965 44.7893L51.0968 43H48.1825V44ZM47.3554 44.7304L46.6483 44.0233L46.6483 44.0233L47.3554 44.7304ZM45 50H44V51H45V50ZM47 50V51H48V50H47ZM48.7696 46.1446L49.4767 46.8517L49.4767 46.8517L48.7696 46.1446ZM52 44.5V45.5H53V44.5H52ZM52 41.5H53V40.5H52V41.5ZM48.7696 39.8554L49.4767 39.1483L49.4767 39.1483L48.7696 39.8554ZM47 36H48V35H47V36ZM65 43C65 55.1503 55.1503 65 43 65V67C56.2548 67 67 56.2548 67 43H65ZM43 21C55.1503 21 65 30.8497 65 43H67C67 29.7452 56.2548 19 43 19V21ZM21 43C21 30.8497 30.8497 21 43 21V19C29.7452 19 19 29.7452 19 43H21ZM43 65C30.8497 65 21 55.1503 21 43H19C19 56.2548 29.7452 67 43 67V65ZM48.0625 40.5625C46.8746 39.3746 46 37.7496 46 36H44C44 38.4178 45.1955 40.5239 46.6483 41.9767L48.0625 40.5625ZM48.7965 41.2107C48.5393 41.0106 48.2932 40.7932 48.0625 40.5625L46.6483 41.9767C46.9372 42.2657 47.2455 42.5381 47.5685 42.7893L48.7965 41.2107ZM33 43H48.1825V41H33V43ZM34 44V42H32V44H34ZM48.1825 43H33V45H48.1825V43ZM48.0625 45.4375C48.2932 45.2068 48.5393 44.9894 48.7965 44.7893L47.5685 43.2107C47.2455 43.4619 46.9372 43.7343 46.6483 44.0233L48.0625 45.4375ZM46 50C46 48.2504 46.8746 46.6254 48.0625 45.4375L46.6483 44.0233C45.1955 45.4761 44 47.5822 44 50H46ZM47 49H45V51H47V49ZM48.0625 45.4375C46.8745 46.6255 46 48.2506 46 50H48C48 48.9168 48.5554 47.773 49.4767 46.8517L48.0625 45.4375ZM52 43.5C50.7508 43.5 49.2507 44.2493 48.0625 45.4375L49.4767 46.8517C50.4345 45.8939 51.4557 45.5 52 45.5V43.5ZM51 41.5V44.5H53V41.5H51ZM48.0625 40.5625C49.2507 41.7507 50.7508 42.5 52 42.5V40.5C51.4557 40.5 50.4345 40.1061 49.4767 39.1483L48.0625 40.5625ZM46 36C46 37.7494 46.8745 39.3745 48.0625 40.5625L49.4767 39.1483C48.5554 38.227 48 37.0832 48 36H46ZM45 37H47V35H45V37Z" fill="white" mask="url(#path-2-inside-1_180_8235)"/>
</svg>
