<svg width="63" height="63" viewBox="0 0 63 63" fill="none" xmlns="http://www.w3.org/2000/svg">
<path d="M62.0559 30.553H57.585V27.843L58.2412 27.8766V29.7259H59.3947V27.9681H60.0509V29.7259H61.3967V27.8094L62.0559 27.8369V30.553Z" fill="white"/>
<path d="M61.674 26.1607L59.1675 24.9745L57.2405 26.749L57.0942 25.8298L58.5742 24.5281L56.7584 23.7201L56.6197 22.8491L59.0193 23.9659L61.0225 22.068L61.1726 23.0113L59.6323 24.3999L61.5315 25.2656L61.674 26.1607Z" fill="white"/>
<path d="M59.9222 19.7051L55.7249 21.28L55.2018 19.8857C55.0781 19.5561 55.0152 19.2581 55.013 18.9917C55.0089 18.7259 55.0767 18.4897 55.2164 18.283C55.3555 18.0744 55.5688 17.9161 55.8564 17.8082C56.0564 17.7331 56.2442 17.692 56.4197 17.6848C56.5933 17.6784 56.766 17.7102 56.938 17.7805C57.108 17.8514 57.2677 17.9816 57.417 18.1711C57.5656 18.3587 57.6968 18.604 57.8104 18.9068C57.9076 19.1659 57.979 19.3792 58.0245 19.5469L59.636 18.9422L59.9222 19.7051ZM57.2815 19.1998C57.2222 19.0417 57.1555 18.9103 57.0814 18.8055C57.0066 18.6989 56.9332 18.6221 56.8613 18.5752C56.7887 18.5264 56.71 18.4962 56.6252 18.4845C56.5397 18.471 56.4624 18.4706 56.3934 18.4835C56.3217 18.4952 56.2449 18.5164 56.163 18.5471C55.9325 18.6336 55.7852 18.7736 55.7209 18.9673C55.6567 19.1609 55.6753 19.3929 55.7768 19.6634L56.0158 20.3006L57.4816 19.7506C57.4768 19.7263 57.4101 19.5427 57.2815 19.1998Z" fill="white"/>
<path d="M57.7398 15.2407L53.8574 17.4577L53.4473 16.7396L56.7573 14.8494L55.8297 13.2249L56.4142 12.9192L57.7398 15.2407Z" fill="white"/>
<path d="M53.4179 11.0313C53.4983 10.6811 53.4023 10.3374 53.1299 10.0005C52.8574 9.6635 52.5429 9.49784 52.1864 9.50351C51.8271 9.50888 51.4473 9.67338 51.0471 9.99702C50.6421 10.3245 50.3977 10.6646 50.3141 11.0174C50.2292 11.3687 50.3223 11.712 50.5935 12.0474C50.866 12.3844 51.1849 12.549 51.5503 12.5414C51.9128 12.5335 52.2957 12.3664 52.6992 12.0402C53.0978 11.7179 53.3374 11.3816 53.4179 11.0313ZM53.6562 9.57879C54.0796 10.1024 54.256 10.6441 54.1852 11.2037C54.1115 11.7629 53.7954 12.2684 53.237 12.7199C52.6753 13.174 52.1143 13.3765 51.5539 13.3273C50.9935 13.2781 50.5015 12.9917 50.0781 12.4681C49.6547 11.9444 49.479 11.4036 49.5511 10.8456C49.6216 10.2888 49.9377 9.7834 50.4993 9.32928C51.0546 8.88028 51.614 8.6791 52.1776 8.72573C52.7412 8.77236 53.2341 9.05671 53.6562 9.57879Z" fill="white"/>
<path d="M50.4869 6.87416L47.6177 10.3188L46.3444 9.2582C46.1709 9.11366 46.0273 8.98085 45.9137 8.85974C45.7986 8.73734 45.7015 8.6075 45.6225 8.47024C45.5407 8.33324 45.4939 8.20027 45.4822 8.07133C45.4689 7.94109 45.4894 7.80198 45.5438 7.65401C45.5954 7.5063 45.6856 7.35506 45.8145 7.2003C46.1947 6.74384 46.6519 6.61622 47.1859 6.81746C47.1809 6.65179 47.2233 6.3879 47.3131 6.0258L47.6848 4.54013L48.3788 5.11827L48.0317 6.35034C47.9151 6.79867 47.8501 7.06751 47.8366 7.15687C47.8618 7.18057 47.9495 7.25492 48.0996 7.37992L48.628 7.82797L49.8584 6.35071L50.4869 6.87416ZM47.5479 7.69888C47.3041 7.49576 47.0932 7.39291 46.9153 7.39034C46.736 7.38934 46.5663 7.48498 46.4062 7.67726C46.2656 7.84609 46.216 8.01529 46.2574 8.18486C46.2989 8.35443 46.4306 8.53167 46.6526 8.71657L47.3818 9.324L48.2471 8.28522C48.2236 8.26569 48.1078 8.1679 47.8997 7.99186C47.6902 7.81738 47.5729 7.71972 47.5479 7.69888Z" fill="white"/>
<path d="M45.2624 3.47148L43.1464 7.40988L40.7592 6.1273L41.0993 5.5652L42.7284 6.44047L43.2744 5.42429L41.7259 4.59234L42.0365 4.01435L43.5849 4.8463L44.2219 3.66074L42.5336 2.7537L42.8698 2.18602L45.2624 3.47148Z" fill="white"/>
<path d="M36.2009 1.7672C36.4518 1.62618 36.7289 1.59491 37.0322 1.67341C37.3355 1.75192 37.5612 1.9112 37.7092 2.15125C37.8572 2.39131 37.8943 2.65414 37.8204 2.93973C37.746 3.22729 37.5821 3.44232 37.3287 3.58481C37.0729 3.72875 36.7943 3.76173 36.493 3.68374C36.1936 3.60626 35.9702 3.4465 35.8227 3.20447C35.6727 2.96391 35.6346 2.70083 35.7085 2.41523C35.7835 2.1257 35.9476 1.90969 36.2009 1.7672Z" fill="white"/>
<path d="M30.9186 0.0314522L30.8668 4.50198L28.157 4.4706L28.1982 3.8149L30.0474 3.83632L30.0608 2.68283L28.3031 2.66247L28.3107 2.00639L30.0684 2.02675L30.084 0.681011L28.1676 0.658817L28.2027 0L30.9186 0.0314522Z" fill="white"/>
<path d="M26.3831 0.385895L25.1777 2.88319L26.9374 4.82374L26.0171 4.96301L24.7268 3.47304L23.9049 5.28264L23.0329 5.4146L24.168 3.02363L22.2855 1.00597L23.2299 0.863053L24.6067 2.41403L25.487 0.521508L26.3831 0.385895Z" fill="white"/>
<path d="M19.9176 2.09385L21.4609 6.30284L20.0627 6.81554C19.7323 6.93671 19.4338 6.9974 19.1673 6.99759C18.9016 6.99969 18.6659 6.9301 18.4602 6.78882C18.2526 6.64824 18.096 6.43373 17.9902 6.1453C17.9167 5.94473 17.877 5.75668 17.8711 5.58114C17.8659 5.4075 17.8991 5.23498 17.9706 5.06358C18.0428 4.89408 18.1742 4.73538 18.3649 4.58747C18.5536 4.44026 18.7998 4.31097 19.1035 4.1996C19.3633 4.10435 19.5772 4.03459 19.7451 3.99034L19.1526 2.37436L19.9176 2.09385ZM19.3925 4.73072C19.234 4.78885 19.102 4.85456 18.9967 4.92785C18.8895 5.00184 18.8122 5.07462 18.7647 5.14618C18.7154 5.21845 18.6846 5.29693 18.6723 5.38161C18.6581 5.46699 18.6572 5.54426 18.6695 5.61341C18.6807 5.68516 18.7013 5.76211 18.7314 5.84425C18.8162 6.07537 18.9551 6.22379 19.1482 6.2895C19.3413 6.3552 19.5735 6.33833 19.8448 6.23887L20.4837 6.00458L19.9447 4.53473C19.9204 4.53931 19.7363 4.60464 19.3925 4.73072Z" fill="white"/>
<path d="M15.4366 4.24772L17.6249 8.14638L16.9037 8.55118L15.038 5.22734L13.4067 6.14299L13.1053 5.55622L15.4366 4.24772Z" fill="white"/>
<path d="M11.2107 8.53171C10.861 8.44869 10.5167 8.54218 10.1777 8.81219C9.83879 9.0822 9.67085 9.39546 9.67392 9.75197C9.67667 10.1113 9.8384 10.4923 10.1591 10.8949C10.4836 11.3023 10.822 11.5491 11.1742 11.6353C11.5248 11.7228 11.8688 11.6321 12.2061 11.3634C12.5451 11.0934 12.7121 10.7757 12.7071 10.4103C12.7018 10.0477 12.5376 9.66355 12.2143 9.25776C11.8949 8.85675 11.5603 8.61473 11.2107 8.53171ZM9.7599 8.28277C10.2866 7.86318 10.8295 7.69082 11.3886 7.7657C11.9473 7.84343 12.4504 8.16317 12.8979 8.7249C13.3479 9.28982 13.5463 9.85231 13.493 10.4124C13.4397 10.9724 13.1497 11.4623 12.623 11.8818C12.0963 12.3014 11.5542 12.4732 10.9967 12.397C10.4405 12.3225 9.93742 12.0027 9.4874 11.4378C9.04246 10.8793 8.84536 10.3184 8.8961 9.75512C8.94683 9.19187 9.23477 8.70109 9.7599 8.28277Z" fill="white"/>
<path d="M7.04119 11.424L10.4648 14.3182L9.39501 15.5837C9.24922 15.7561 9.11536 15.8987 8.99343 16.0114C8.87019 16.1257 8.73966 16.2218 8.60183 16.2998C8.46423 16.3806 8.33093 16.4264 8.2019 16.4372C8.07157 16.4496 7.93261 16.428 7.78504 16.3726C7.63771 16.3199 7.48714 16.2286 7.33332 16.0986C6.87963 15.7151 6.75535 15.257 6.96047 14.7244C6.79476 14.7282 6.53119 14.6839 6.16975 14.5915L4.68683 14.209L5.27 13.5192L6.49951 13.8752C6.94699 13.9951 7.21535 14.0621 7.3046 14.0763C7.32848 14.0512 7.40347 13.964 7.52956 13.8149L7.98145 13.2898L6.51318 12.0486L7.04119 11.424ZM7.8445 14.3688C7.6396 14.6112 7.53522 14.8214 7.53136 14.9992C7.52906 15.1785 7.62346 15.3488 7.81457 15.5104C7.98237 15.6522 8.15121 15.7031 8.32107 15.6628C8.49094 15.6226 8.66913 15.4922 8.85564 15.2716L9.46836 14.5467L8.43591 13.674C8.41621 13.6973 8.31758 13.8124 8.14003 14.0192C7.96403 14.2274 7.86552 14.344 7.8445 14.3688Z" fill="white"/>
<path d="M3.60195 16.6183L7.52461 18.7633L6.22442 21.141L5.66485 20.7968L6.55214 19.1741L5.54001 18.6207L4.69665 20.163L4.12097 19.8482L4.96433 18.3059L3.78352 17.6602L2.86402 19.3417L2.29884 19.0014L3.60195 16.6183Z" fill="white"/>
<path d="M1.84002 25.6215C1.7009 25.3696 1.67174 25.0923 1.75254 24.7896C1.83334 24.4868 1.99433 24.2624 2.23551 24.1162C2.47668 23.97 2.73978 23.9349 3.02481 24.011C3.3118 24.0876 3.52557 24.2531 3.66613 24.5075C3.80813 24.7644 3.83899 25.0433 3.75871 25.344C3.67896 25.6428 3.51751 25.865 3.27437 26.0107C3.03267 26.1589 2.76931 26.1949 2.48429 26.1188C2.19533 26.0417 1.98058 25.8759 1.84002 25.6215Z" fill="white"/>
<path d="M0.052416 30.9102L4.52241 30.9965L4.47011 33.7059L3.81475 33.6597L3.85044 31.8107L2.69709 31.7884L2.66317 33.5459L2.00716 33.5332L2.04109 31.7758L0.695513 31.7498L0.658527 33.6659L0 33.6258L0.052416 30.9102Z" fill="white"/>
<path d="M0.365605 35.4291L2.85358 36.6537L4.80758 34.9089L4.93978 35.8302L3.43995 37.1091L5.24319 37.9448L5.36846 38.8178L2.98627 37.6644L0.954229 39.5314L0.81856 38.5858L2.38005 37.2211L0.49434 36.3263L0.365605 35.4291Z" fill="white"/>
<path d="M2.0147 41.9086L6.23517 40.3969L6.73736 41.7989C6.85604 42.1303 6.91448 42.4292 6.91267 42.6957C6.91278 42.9614 6.84142 43.1966 6.69859 43.4012C6.55645 43.6077 6.34077 43.7628 6.05156 43.8664C5.85044 43.9384 5.6621 43.9767 5.48652 43.9812C5.31285 43.9851 5.14058 43.9506 4.96972 43.8778C4.80077 43.8044 4.64306 43.6717 4.49659 43.48C4.3508 43.2902 4.22336 43.043 4.11428 42.7385C4.02098 42.478 3.95284 42.2636 3.90985 42.0953L2.28946 42.6757L2.0147 41.9086ZM4.64755 42.4535C4.7045 42.6124 4.76921 42.7448 4.84171 42.8507C4.91489 42.9585 4.98708 43.0364 5.05829 43.0843C5.13019 43.1342 5.20843 43.1656 5.29302 43.1785C5.37829 43.1934 5.45555 43.1949 5.52479 43.183C5.59662 43.1724 5.67373 43.1524 5.75608 43.1229C5.98784 43.0399 6.1373 42.9021 6.20445 42.7094C6.27161 42.5168 6.25648 42.2845 6.15906 42.0126L5.92958 41.3719L4.45572 41.8998C4.46012 41.9241 4.52407 42.1087 4.64755 42.4535Z" fill="white"/>
<path d="M4.11485 46.3862L8.02956 44.2267L8.42903 44.9508L5.09151 46.7919L5.9951 48.43L5.40612 48.727L4.11485 46.3862Z" fill="white"/>
<path d="M8.3881 50.6902C8.30253 51.0393 8.39351 51.3843 8.66104 51.7252C8.92857 52.0661 9.2406 52.2363 9.59712 52.2358C9.9565 52.2357 10.3386 52.0767 10.7436 51.759C11.1533 51.4374 11.4026 51.1009 11.4913 50.7493C11.5814 50.3994 11.4932 50.0547 11.227 49.7154C10.9594 49.3745 10.6429 49.2052 10.2775 49.2075C9.91493 49.2102 9.52957 49.3716 9.12144 49.6919C8.71811 50.0084 8.47366 50.3412 8.3881 50.6902ZM8.12859 52.1391C7.71285 51.6094 7.54445 51.0652 7.6234 50.5067C7.70521 49.9486 8.0286 49.4478 8.59358 49.0044C9.16176 48.5586 9.72568 48.3643 10.2853 48.4216C10.845 48.479 11.3327 48.7726 11.7484 49.3023C12.1642 49.8321 12.3319 50.3754 12.2517 50.9323C12.1731 51.488 11.8497 51.9887 11.2816 52.4346C10.7198 52.8755 10.1575 53.0685 9.5946 53.0137C9.03174 52.9588 8.54307 52.6673 8.12859 52.1391Z" fill="white"/>
<path d="M11.1778 54.8272L14.0968 51.4247L15.3545 52.5037C15.5259 52.6507 15.6675 52.7856 15.7794 52.9084C15.8927 53.0325 15.9879 53.1637 16.0649 53.3021C16.1447 53.4403 16.1895 53.5739 16.1994 53.703C16.2108 53.8334 16.1883 53.9722 16.1317 54.1194C16.078 54.2663 15.9856 54.4162 15.8544 54.5691C15.4676 55.02 15.0087 55.1409 14.4776 54.9319C14.4802 55.0977 14.4339 55.3609 14.3389 55.7217L13.9457 57.2018L13.2601 56.6136L13.6251 55.3867C13.7482 54.9401 13.8171 54.6722 13.832 54.5831C13.807 54.559 13.7205 54.4834 13.5722 54.3562L13.0504 53.9005L11.7986 55.3597L11.1778 54.8272ZM14.1285 54.0453C14.3693 54.252 14.5787 54.3579 14.7566 54.3631C14.9358 54.3667 15.1068 54.2735 15.2698 54.0836C15.4128 53.9168 15.4649 53.7483 15.4259 53.5782C15.3869 53.408 15.2578 53.2289 15.0385 53.0408L14.3182 52.4228L13.4379 53.4489C13.4611 53.4688 13.5754 53.5682 13.781 53.7473C13.9879 53.9248 14.1038 54.0241 14.1285 54.0453Z" fill="white"/>
<path d="M16.3868 58.354L18.5607 54.4473L20.9287 55.765L20.5803 56.322L18.9643 55.4228L18.4034 56.4308L19.9394 57.2855L19.6204 57.8588L18.0844 57.0041L17.43 58.1801L19.1046 59.112L18.7601 59.6747L16.3868 58.354Z" fill="white"/>
<path d="M25.5082 60.2241C25.2558 60.3622 24.9784 60.3903 24.676 60.3084C24.3735 60.2264 24.1497 60.0646 24.0044 59.8229C23.8591 59.5811 23.8251 59.3179 23.9022 59.0332C23.9799 58.7465 24.1462 58.5333 24.4012 58.3937C24.6586 58.2527 24.9376 58.2229 25.238 58.3043C25.5365 58.3852 25.7581 58.5475 25.9029 58.7912C26.0501 59.0335 26.0851 59.297 26.008 59.5817C25.9298 59.8704 25.7632 60.0845 25.5082 60.2241Z" fill="white"/>
<path d="M30.6285 62.0352L30.7493 57.566L33.4582 57.6392L33.407 58.2942L31.5583 58.2442L31.5271 59.3974L33.2843 59.4449L33.2665 60.1008L31.5094 60.0533L31.473 61.3986L33.3888 61.4504L33.3436 62.1086L30.6285 62.0352Z" fill="white"/>
<path d="M35.1558 61.766L36.3995 59.2875L34.6697 57.3201L35.5921 57.195L36.8594 58.7046L37.7089 56.9078L38.5829 56.7893L37.4112 59.1626L39.2625 61.2089L38.316 61.3373L36.9632 59.7654L36.054 61.6441L35.1558 61.766Z" fill="white"/>
<path d="M41.6761 60.1694L40.1962 55.9377L41.602 55.446C41.9342 55.3298 42.2336 55.2737 42.5 55.2775C42.7658 55.2794 43.0004 55.3525 43.2039 55.4969C43.4094 55.6405 43.5628 55.8574 43.6642 56.1474C43.7347 56.349 43.7716 56.5376 43.7748 56.7133C43.7774 56.8869 43.7416 57.0589 43.6675 57.2293C43.5928 57.3976 43.459 57.5544 43.2662 57.6994C43.0753 57.8437 42.8271 57.9693 42.5218 58.0761C42.2606 58.1674 42.0457 58.234 41.8771 58.2757L42.4453 59.9004L41.6761 60.1694ZM42.2408 57.5407C42.4002 57.485 42.5331 57.4212 42.6395 57.3495C42.7478 57.2772 42.8262 57.2056 42.8747 57.1347C42.9251 57.0632 42.9571 56.9852 42.9707 56.9007C42.9862 56.8156 42.9883 56.7383 42.9769 56.669C42.9669 56.5971 42.9474 56.5198 42.9185 56.4372C42.8373 56.2049 42.7006 56.0544 42.5085 55.9858C42.3164 55.9172 42.084 55.9306 41.8113 56.0259L41.1689 56.2506L41.6857 57.7284C41.7101 57.7241 41.8951 57.6616 42.2408 57.5407Z" fill="white"/>
<path d="M46.1799 58.1041L44.0494 54.1735L44.7765 53.7794L46.5928 57.1304L48.2375 56.239L48.5302 56.8301L46.1799 58.1041Z" fill="white"/>
<path d="M50.5371 53.852C50.8855 53.9401 51.2312 53.8516 51.574 53.5866C51.9169 53.3216 52.0893 53.0108 52.0915 52.6543C52.094 52.2949 51.9378 51.9116 51.623 51.5044C51.3044 51.0923 50.9697 50.8406 50.6188 50.7493C50.2695 50.6567 49.9243 50.7423 49.583 51.0061C49.2402 51.2712 49.0686 51.5864 49.0682 51.9518C49.0682 52.3144 49.2269 52.7009 49.5442 53.1114C49.8577 53.517 50.1887 53.7639 50.5371 53.852ZM51.9841 54.1221C51.4513 54.5339 50.9059 54.6984 50.348 54.6153C49.7905 54.5295 49.2921 54.2024 48.8529 53.6342C48.4111 53.0628 48.221 52.4975 48.2824 51.9383C48.3438 51.379 48.6409 50.8935 49.1737 50.4816C49.7065 50.0698 50.2511 49.906 50.8074 49.9902C51.3624 50.0729 51.8608 50.3999 52.3025 50.9713C52.7393 51.5363 52.9282 52.1 52.8693 52.6625C52.8103 53.2249 52.5153 53.7114 51.9841 54.1221Z" fill="white"/>
<path d="M54.8176 50.9506L51.4258 48.0192L52.5094 46.7654C52.657 46.5946 52.7924 46.4535 52.9156 46.3421C53.0401 46.2292 53.1716 46.1345 53.3103 46.058C53.4488 45.9787 53.5826 45.9343 53.7117 45.9249C53.8422 45.914 53.9809 45.9371 54.1278 45.9942C54.2746 46.0484 54.4242 46.1413 54.5765 46.2731C55.026 46.6615 55.1453 47.1209 54.9344 47.6512C55.1001 47.6492 55.3632 47.6964 55.7236 47.7928L57.2023 48.1914L56.6116 48.8748L55.386 48.5054C54.9399 48.3807 54.6723 48.3107 54.5832 48.2956C54.559 48.3204 54.4831 48.4067 54.3554 48.5545L53.8978 49.0746L55.3524 50.3318L54.8176 50.9506ZM54.0465 47.9971C54.254 47.757 54.3607 47.548 54.3665 47.3702C54.3708 47.191 54.2782 47.0196 54.0889 46.856C53.9227 46.7123 53.7544 46.6596 53.5841 46.698C53.4138 46.7364 53.2342 46.8648 53.0453 47.0834L52.4247 47.8015L53.4476 48.6855C53.4675 48.6624 53.5674 48.5484 53.7472 48.3435C53.9255 48.1372 54.0252 48.0217 54.0465 47.9971Z" fill="white"/>
<path d="M58.2725 45.8932L54.3819 43.6905L55.717 41.3323L56.2715 41.6847L55.3603 43.2941L56.3642 43.8624L57.2302 42.3327L57.8012 42.656L56.9351 44.1857L58.1063 44.8487L59.0505 43.181L59.6106 43.5296L58.2725 45.8932Z" fill="white"/>
<path d="M60.2021 36.8036C60.3383 37.0571 60.3643 37.3347 60.2801 37.6365C60.1959 37.9382 60.0323 38.1609 59.7895 38.3043C59.5467 38.4478 59.2832 38.4798 58.9991 38.4005C58.713 38.3206 58.5011 38.1527 58.3634 37.8967C58.2244 37.6382 58.1967 37.3591 58.2804 37.0592C58.3635 36.7614 58.5275 36.541 58.7723 36.3981C59.0156 36.2527 59.2794 36.2197 59.5635 36.299C59.8516 36.3794 60.0644 36.5476 60.2021 36.8036Z" fill="white"/>
</svg>
